<?xml version="1.0" encoding="iso-8859-1"?>
<!-- Generator: Adobe Illustrator 19.0.0, SVG Export Plug-In . SVG Version: 6.00 Build 0)  -->
<svg version="1.1" id="Layer_1" xmlns="http://www.w3.org/2000/svg" xmlns:xlink="http://www.w3.org/1999/xlink" x="0px" y="0px"
	 viewBox="0 0 512 512" style="enable-background:new 0 0 512 512;" xml:space="preserve">
<path style="fill:#D7B48C;" d="M251.159,4.985v35.787l41.336,8.267c0-37.94-24.183-46.861-35.555-48.958
	C253.91-0.477,251.159,1.904,251.159,4.985z"/>
<path style="fill:#EBC9A0;" d="M366.899,396.26c0-99.206,41.336-123.632,41.336-214.946c0-138.773-141.961-148.49-175.044-148.871
	c-3.973-0.046-7.371,2.752-8.15,6.649l-6.95,34.749l99.206,165.343l8.267,157.076H366.899"/>
<path style="fill:#F5DCB4;" d="M291.053,73.139c-39.402-12.66-83.434-10.952-99.311-9.456c-8.511,0.802-14.987,7.918-14.987,16.467
	v10.225l-76.414,76.414c-3.909,3.909-5.606,9.513-4.522,14.934l5.474,27.371c0.643,3.213,3.147,5.833,6.354,6.505
	c43.307,9.069,71.636-6.86,84.986-17.541c5.38-4.305,12.82-5.392,18.811-1.988c29.464,16.741,56.249,10.045,56.249,10.045
	c-75.688,75.688-99.206,127.012-99.206,157.076c0,33.069,24.801,49.603,24.801,49.603h181.877c0,0-26.868-40.819,2.583-177.744
	C400.495,129.305,348.987,91.753,291.053,73.139z"/>
<path style="fill:#D7B48C;" d="M209.824,115.177c-4.57,0-8.267-3.698-8.267-8.267v-8.267c0-4.57,3.698-8.267,8.267-8.267
	s8.267,3.698,8.267,8.267v8.267C218.091,111.479,214.393,115.177,209.824,115.177z"/>
<g>
	<path style="fill:#EBC9A0;" d="M234.625,396.26c0,0-33.069-57.87,24.801-124.007c50.488-57.701,49.529-88.193,45.159-100.624
		c-1.363-3.877-5.461-6.195-9.457-5.231c-46.493,11.222-77.989-33.736-101.84-9.885c-16.534,16.534-49.603,33.069-96.17,31.716
		l4.174,20.867c0.643,3.215,3.135,5.83,6.343,6.502c43.314,9.073,71.646-6.856,84.997-17.539c5.38-4.305,12.82-5.392,18.811-1.988
		c29.464,16.741,56.249,10.045,56.249,10.045c-75.688,75.688-99.206,127.012-99.206,157.076c0,19.608,8.706,33.354,15.805,41.336
		h50.332v-8.268H234.625z"/>
	<path style="fill:#EBC9A0;" d="M399.968,437.596H151.954v-24.801c0-9.132,7.403-16.534,16.534-16.534h214.946
		c9.132,0,16.534,7.403,16.534,16.534V437.596z"/>
</g>
<path style="fill:#D7B48C;" d="M218.091,437.596v-24.801c0-9.132,7.403-16.534,16.534-16.534h-66.137
	c-9.132,0-16.534,7.402-16.534,16.534v24.801H218.091z"/>
<path style="fill:#F5DCB4;" d="M399.968,512H151.954c-9.132,0-16.534-7.403-16.534-16.534v-49.603
	c0-9.132,7.403-16.534,16.534-16.534h248.014c9.132,0,16.534,7.403,16.534,16.534v49.603C416.502,504.597,409.1,512,399.968,512z"/>
<path style="fill:#EBC9A0;" d="M226.358,495.466v-49.603c0-9.132,7.403-16.534,16.534-16.534h-90.939
	c-9.132,0-16.534,7.402-16.534,16.534v49.603c0,9.132,7.403,16.534,16.534,16.534h90.939
	C233.761,512,226.358,504.597,226.358,495.466z"/>
<g>
</g>
<g>
</g>
<g>
</g>
<g>
</g>
<g>
</g>
<g>
</g>
<g>
</g>
<g>
</g>
<g>
</g>
<g>
</g>
<g>
</g>
<g>
</g>
<g>
</g>
<g>
</g>
<g>
</g>
</svg>
