<?xml version="1.0" encoding="iso-8859-1"?>
<!-- Generator: Adobe Illustrator 19.0.0, SVG Export Plug-In . SVG Version: 6.00 Build 0)  -->
<svg version="1.1" id="Capa_1" xmlns="http://www.w3.org/2000/svg" xmlns:xlink="http://www.w3.org/1999/xlink" x="0px" y="0px"
	 viewBox="0 0 512 512" style="enable-background:new 0 0 512 512;" xml:space="preserve">
<path style="fill:#DBD9DC;" d="M276.645,470.71c-13.661,0-24.774-11.113-24.774-24.774V49.548c0-4.552-3.702-8.258-8.258-8.258
	h-24.774V24.774h24.774c13.661,0,24.774,11.113,24.774,24.774v396.387c0,4.552,3.702,8.258,8.258,8.258s8.258-3.706,8.258-8.258
	V132.129c0-13.661,11.113-24.774,24.774-24.774s24.774,11.113,24.774,24.774v156.903c0,18.214,14.815,33.032,33.032,33.032
	c18.218,0,33.032-14.819,33.032-33.032v-24.774h16.516v24.774c0,27.323-22.226,49.548-49.548,49.548
	c-27.323,0-49.548-22.226-49.548-49.548V132.129c0-4.552-3.702-8.258-8.258-8.258s-8.258,3.706-8.258,8.258v313.806
	C301.419,459.597,290.306,470.71,276.645,470.71z"/>
<path style="fill:#EDEBED;" d="M202.324,512H86.71c-13.682,0-24.774-11.092-24.774-24.774V24.774C61.936,11.092,73.027,0,86.71,0
	h115.613c13.682,0,24.774,11.092,24.774,24.774v462.452C227.098,500.908,216.006,512,202.324,512z"/>
<circle style="fill:#DBD9DC;" cx="144.521" cy="156.9" r="49.548"/>
<g>
	<path style="fill:#4B3F4E;" d="M128.001,165.161c-4.565,0-8.298-3.698-8.298-8.258s3.653-8.258,8.218-8.258h0.08
		c4.565,0,8.258,3.698,8.258,8.258S132.566,165.161,128.001,165.161z"/>
	<path style="fill:#4B3F4E;" d="M161.033,165.161c-4.565,0-8.298-3.698-8.298-8.258s3.653-8.258,8.218-8.258h0.081
		c4.565,0,8.258,3.698,8.258,8.258S165.598,165.161,161.033,165.161z"/>
</g>
<path style="fill:#E6646E;" d="M177.549,74.323h-66.065c-4.561,0-8.258-3.697-8.258-8.258V49.548c0-4.561,3.697-8.258,8.258-8.258
	h66.065c4.561,0,8.258,3.697,8.258,8.258v16.516C185.807,70.625,182.109,74.323,177.549,74.323z"/>
<g>
	<path style="fill:#DBD9DC;" d="M379.871,210.581v37.161c0,15.936,12.968,28.903,28.903,28.903s28.903-12.968,28.903-28.903v-37.161
		H379.871z"/>
	<path style="fill:#DBD9DC;" d="M144.517,495.484c-36.486,0-66.065-29.578-66.065-66.065V1.517
		c-9.6,3.413-16.516,12.486-16.516,23.257v462.452C61.936,500.908,73.027,512,86.71,512h115.613
		c10.771,0,19.844-6.916,23.257-16.516H144.517z"/>
</g>
<path style="fill:#C9C6CA;" d="M144.517,107.355c-16.848,0-31.708,8.426-40.66,21.275c8.021-5.588,17.756-8.888,28.273-8.888
	c27.365,0,49.548,22.183,49.548,49.548c0,10.517-3.3,20.252-8.888,28.273c12.849-8.952,21.275-23.813,21.275-40.66
	C194.066,129.538,171.882,107.355,144.517,107.355z"/>
<circle style="fill:#DBD9DC;" cx="144.521" cy="289.03" r="49.548"/>
<g>
	<path style="fill:#4B3F4E;" d="M128.001,297.29c-4.565,0-8.298-3.698-8.298-8.258s3.653-8.258,8.218-8.258h0.08
		c4.565,0,8.258,3.698,8.258,8.258S132.566,297.29,128.001,297.29z"/>
	<path style="fill:#4B3F4E;" d="M161.033,297.29c-4.565,0-8.298-3.698-8.298-8.258s3.653-8.258,8.218-8.258h0.081
		c4.565,0,8.258,3.698,8.258,8.258S165.598,297.29,161.033,297.29z"/>
</g>
<path style="fill:#C9C6CA;" d="M144.517,239.484c-16.848,0-31.708,8.426-40.66,21.275c8.021-5.588,17.756-8.888,28.273-8.888
	c27.365,0,49.548,22.183,49.548,49.548c0,10.517-3.3,20.252-8.888,28.273c12.849-8.952,21.275-23.813,21.275-40.66
	C194.066,261.667,171.882,239.484,144.517,239.484z"/>
<circle style="fill:#DBD9DC;" cx="144.521" cy="421.16" r="49.548"/>
<g>
	<path style="fill:#4B3F4E;" d="M128.001,429.419c-4.565,0-8.298-3.698-8.298-8.258s3.653-8.258,8.218-8.258h0.08
		c4.565,0,8.258,3.698,8.258,8.258S132.566,429.419,128.001,429.419z"/>
	<path style="fill:#4B3F4E;" d="M161.033,429.419c-4.565,0-8.298-3.698-8.298-8.258s3.653-8.258,8.218-8.258h0.081
		c4.565,0,8.258,3.698,8.258,8.258S165.598,429.419,161.033,429.419z"/>
</g>
<path style="fill:#C9C6CA;" d="M144.517,371.613c-16.848,0-31.708,8.426-40.66,21.275C111.877,387.3,121.612,384,132.13,384
	c27.365,0,49.548,22.183,49.548,49.548c0,10.517-3.3,20.252-8.888,28.273c12.849-8.952,21.275-23.813,21.275-40.66
	C194.066,393.796,171.882,371.613,144.517,371.613z"/>
<g>
	<path style="fill:#DC4655;" d="M177.549,41.29h-33.032v33.032h33.032c4.561,0,8.258-3.698,8.258-8.258V49.548
		C185.807,44.987,182.109,41.29,177.549,41.29z"/>
	<path style="fill:#DC4655;" d="M119.742,66.065V49.548c0-4.561,3.697-8.258,8.258-8.258h-16.516c-4.561,0-8.258,3.697-8.258,8.258
		v16.516c0,4.56,3.697,8.258,8.258,8.258h16.516C123.439,74.323,119.742,70.625,119.742,66.065z"/>
</g>
<path style="fill:#C9C6CA;" d="M417.033,239.484h20.645v-28.903h-57.806v37.161c0,13.047,8.748,23.975,20.645,27.555V256
	C400.516,246.878,407.911,239.484,417.033,239.484z"/>
<path id="SVGCleanerId_0" style="fill:#EDEBED;" d="M441.806,222.968h-66.065c-4.561,0-8.258-3.697-8.258-8.258v-16.516
	c0-4.561,3.697-8.258,8.258-8.258h66.065c4.561,0,8.258,3.697,8.258,8.258v16.516C450.065,219.27,446.367,222.968,441.806,222.968z"
	/>
<g>
	<path style="fill:#C0BCC1;" d="M392.258,206.452c-4.565,0-8.258-3.698-8.258-8.258v-49.548c0-4.56,3.694-8.258,8.258-8.258
		s8.258,3.698,8.258,8.258v49.548C400.516,202.754,396.823,206.452,392.258,206.452z"/>
	<path style="fill:#C0BCC1;" d="M425.29,206.452c-4.565,0-8.258-3.698-8.258-8.258v-49.548c0-4.56,3.694-8.258,8.258-8.258
		s8.258,3.698,8.258,8.258v49.548C433.548,202.754,429.855,206.452,425.29,206.452z"/>
</g>
<g>
	<path id="SVGCleanerId_0_1_" style="fill:#EDEBED;" d="M441.806,222.968h-66.065c-4.561,0-8.258-3.697-8.258-8.258v-16.516
		c0-4.561,3.697-8.258,8.258-8.258h66.065c4.561,0,8.258,3.697,8.258,8.258v16.516C450.065,219.27,446.367,222.968,441.806,222.968z
		"/>
</g>
<path style="fill:#DBD9DC;" d="M392.258,214.71v-16.516c0-4.561,3.697-8.258,8.258-8.258h-24.774c-4.561,0-8.258,3.697-8.258,8.258
	v16.516c0,4.56,3.697,8.258,8.258,8.258h24.774C395.955,222.968,392.258,219.27,392.258,214.71z"/>
<g>
</g>
<g>
</g>
<g>
</g>
<g>
</g>
<g>
</g>
<g>
</g>
<g>
</g>
<g>
</g>
<g>
</g>
<g>
</g>
<g>
</g>
<g>
</g>
<g>
</g>
<g>
</g>
<g>
</g>
</svg>
