<?xml version="1.0" encoding="iso-8859-1"?>
<!-- Generator: Adobe Illustrator 19.0.0, SVG Export Plug-In . SVG Version: 6.00 Build 0)  -->
<svg version="1.1" id="Layer_1" xmlns="http://www.w3.org/2000/svg" xmlns:xlink="http://www.w3.org/1999/xlink" x="0px" y="0px"
	 viewBox="0 0 511.999 511.999" style="enable-background:new 0 0 511.999 511.999;" xml:space="preserve">
<path style="fill:#D9576D;" d="M410.246,0H101.753C86.821,0,74.717,12.105,74.717,27.035v457.928
	c0,14.932,12.105,27.035,27.035,27.035h308.493c14.932,0,27.035-12.105,27.035-27.035V27.035C437.281,12.105,425.178,0,410.246,0z"
	/>
<path style="fill:#FF8095;" d="M360.953,54.012H151.044c-12.325,0-22.317,9.992-22.317,22.317v359.345
	c0,12.325,9.992,22.317,22.317,22.317h209.909c12.325,0,22.317-9.992,22.317-22.317V76.327
	C383.27,64.002,373.279,54.012,360.953,54.012z"/>
<circle style="fill:#CCF7FF;" cx="202.229" cy="276.786" r="35.847"/>
<circle style="fill:#71888C;" cx="202.229" cy="276.786" r="14.506"/>
<path style="opacity:0.15;fill:#333333;enable-background:new    ;" d="M199.128,276.791c0-5.987,3.629-11.124,8.805-13.34
	c-1.75-0.749-3.676-1.167-5.702-1.167c-8.011,0-14.506,6.494-14.506,14.506c0,8.012,6.494,14.506,14.506,14.506
	c2.025,0,3.951-0.417,5.702-1.167C202.756,287.914,199.128,282.778,199.128,276.791z"/>
<g>
	<path style="fill:#D9576D;" d="M323.984,123.217h-135.97c-2.193,0-4.3-0.842-5.891-2.353l-16.294-15.479
		c-3.424-3.253-3.562-8.667-0.309-12.091c3.255-3.424,8.669-3.562,12.092-0.31l13.818,13.128h129.141l13.818-13.128
		c3.426-3.253,8.839-3.114,12.092,0.31c3.253,3.424,3.114,8.838-0.309,12.091l-16.294,15.479
		C328.286,122.374,326.177,123.217,323.984,123.217z"/>
	<path style="fill:#D9576D;" d="M323.984,163.137h-135.97c-2.193,0-4.3-0.842-5.891-2.353l-16.294-15.479
		c-3.424-3.253-3.562-8.667-0.309-12.091c3.255-3.424,8.669-3.562,12.092-0.31l13.818,13.128h129.141l13.818-13.128
		c3.426-3.253,8.839-3.114,12.092,0.31c3.253,3.424,3.114,8.838-0.309,12.091l-16.294,15.479
		C328.286,162.296,326.177,163.137,323.984,163.137z"/>
	<path style="fill:#D9576D;" d="M323.984,203.059h-135.97c-2.193,0-4.3-0.842-5.891-2.353l-16.294-15.479
		c-3.424-3.253-3.562-8.667-0.309-12.091c3.255-3.426,8.669-3.562,12.092-0.31l13.818,13.128h129.141l13.818-13.128
		c3.426-3.253,8.839-3.114,12.092,0.31c3.253,3.424,3.114,8.838-0.309,12.091l-16.294,15.48
		C328.286,202.216,326.177,203.059,323.984,203.059z"/>
</g>
<g>
</g>
<g>
</g>
<g>
</g>
<g>
</g>
<g>
</g>
<g>
</g>
<g>
</g>
<g>
</g>
<g>
</g>
<g>
</g>
<g>
</g>
<g>
</g>
<g>
</g>
<g>
</g>
<g>
</g>
</svg>
